<svg version="1.2" xmlns="http://www.w3.org/2000/svg" viewBox="0 0 196 196" width="196" height="196">
	<title>321353356351 1</title>
	<defs>
		<radialGradient id="g1" cx="100.4" cy="98.9" r="20" gradientUnits="userSpaceOnUse">
			<stop offset="0" stop-color="v"/>
			<stop offset="1" stop-color="#38256400"/>
		</radialGradient>
		<radialGradient id="g2" cx="99.6" cy="96.1" r="30" gradientUnits="userSpaceOnUse">
			<stop offset="0" stop-color="#213a9f"/>
			<stop offset="1" stop-color="#f5f2ee00"/>
		</radialGradient>
		<radialGradient id="g3" cx="98" cy="98" r="50" gradientUnits="userSpaceOnUse">
			<stop offset="0" stop-color="#2f54bd"/>
			<stop offset="1" stop-color="#faebd700"/>
		</radialGradient>
		<radialGradient id="g4" cx="98" cy="98" r="60" gradientUnits="userSpaceOnUse">
			<stop offset="0" stop-color="#2f54bd"/>
			<stop offset="1" stop-color="#faebd700"/>
		</radialGradient>
	</defs>
	<style>
		.s0 { mix-blend-mode: screen;fill: url(#g1) } 
		.s1 { mix-blend-mode: screen;fill: url(#g2) } 
		.s2 { fill: #ffffff } 
		.s3 { fill: #625eab } 
		.s4 { mix-blend-mode: screen;fill: url(#g3) } 
		.s5 { mix-blend-mode: screen;fill: url(#g4) } 
	</style>
	<g id="321353356351 1">
		<g id="&lt;Group&gt;">
			<g id="&lt;Clip Group&gt;">
				<g id="-e-">
					<g id="&lt;Group&gt;">
						<g id="&lt;Group&gt;">
							<path id="&lt;Path&gt;" class="s0" d="m148.1 51.3c26.1 26.1 25.9 68.6-0.4 94.9-26.3 26.3-68.8 26.5-94.9 0.4-26.1-26.1-25.9-68.6 0.4-94.9 26.3-26.3 68.8-26.5 94.9-0.4z"/>
						</g>
						<g id="&lt;Group&gt;">
							<path id="&lt;Path&gt;" class="s1" d="m140.3 55.5c22.2 22.2 22.1 58.5-0.4 80.9-22.4 22.5-58.6 22.6-80.9 0.3-22.3-22.2-22.1-58.5 0.3-80.9 22.5-22.4 58.7-22.6 81-0.3z"/>
						</g>
						<path id="&lt;Path&gt;" class="s2" d="m143.3 96.7c0 23.8-19.3 43.2-43.2 43.2-20.4 0-37.4-14-42.1-32.8-0.8-3.4-1.2-6.9-1.2-10.4q0-2.4 0.2-4.7c2.4-21.7 20.7-38.6 43.1-38.6 23.9 0 43.2 19.3 43.2 43.3z"/>
						<g id="&lt;Group&gt;" style="opacity: .2">
							<path id="&lt;Path&gt;" class="s3" d="m91.4 123.4c0.7-0.7 1-1.7 1.8-2.3 1.6-1.4 4.8-1.3 6.8-0.8 0.8 0.1 1.9 0.7 2.7 0.9 0.9 0.2 1.8-0.3 2.5-0.7 0.9-0.4 1.7-1.2 2.8-0.9 0.7 0.2 0.8 0.5 1.5 0.6 0.6 0 1-0.1 1.5 0.1 0.8 0.2 1.6 1 2.2 1.4 0.9 0.6 1.6 1 2.7 1.1 1.6 0.1 3.2-0.2 4.6-1.2 0.8-0.6 1.1-1.2 2-1.6 0.7-0.3 1.5-0.7 1.9-1.3 1-1.5 0.4-4.2-0.3-5.8-0.6-1.5-1.8-2.9-1.3-4.7 0.5-1.6 2.4-2.1 3.7-3.1 2.2-1.8 6.9-4.6 4.4-7.9-0.3-0.4-0.9-0.6-0.9-1.2-0.1-0.5 0.5-0.5 0.6-1 0.1-0.9-0.7-1.5-1.1-2.1-1-1.4-2.1-3-2.1-4.7 0-1-0.2-2 0.5-2.7 0.6-0.6 1.1-0.3 2.1 0 1.4 0.5 3 1 3.6 2.8 0.1 0.7 0 1.3 0.1 2 0 0.6 0.2 0.9 0.4 1.5 0.2 1 0.1 2.1 0.1 3.2 0 1 0.2 1.6 0.4 2.6 0.2 0.6 0 1 0.1 1.6 0.1 0.5 0.3 0.8 0.4 1.1 0.5 2.1 0.3 4.7-0.3 6.7-0.6 2.3 0.3 3.6 2.4 2.7 1.2 1.5 1.4 2 0.8 3.7-0.5 1.5-0.9 2.9-1.7 4.1-1.5 2.4-3 4.7-5.5 6.3-1.2 0.9-2.5 1.8-3.7 2.6-0.7 0.5-1.4 0.8-2.1 1.3-0.7 0.5-1.2 0.5-1.8 0.8-1.4 0.6-2.7 0.9-4.2 1.5-0.6 0.2-1.5 0.7-2 0.5-0.7-0.3-0.6-1.3-0.7-1.9-1.7-0.5-2.4 0.4-3.7 0.9-1.3 0.4-2.3 0.7-3.5 1.1-1.2 0.5-2.5 1-3.7 1.3-1.3 0.4-2.2 0.9-3.7 0.8-1.5-0.1-2.3-1.3-3.6-1.6-0.7-0.1-1.5 0-2.2 0-0.9 0.1-1.1-0.2-1.9-0.4-1.3-0.4-2-0.6-3-1.7-1-0.9-1.3-1.9-1.9-3.1 0.2-1.6 1.6-1.8 2.3-2.5z"/>
							<path id="&lt;Path&gt;" class="s3" d="m129 80.3c-2 0-3.7-1.4-5.3-2.5-1.3-0.9-2.6-2.3-3.3-3.7-0.1-0.4-0.2-0.7-0.4-1.1 0-0.1-0.5-1.4-0.5-1.4 0.1-0.7 0.7-1.6 1.2-2.2 1.6-1.6 4-0.4 5.5 0.5 1.5 1 2.9 2 4.2 3.2 0.6 0.6 1.4 1.1 1.8 1.8 0.6 1 0.4 2.1 0.4 3.3 0 1.8 2.3 3.8-0.5 4.2-1.1 0.2-4.5-0.8-4.7-2.1z"/>
							<path id="&lt;Path&gt;" class="s3" d="m94.4 136.4c-0.5 0.5-1.1 0.1-1.6 0-0.5-0.2-1-0.3-1.6-0.3-1.1 0-2.2 0-3.3-0.2-1-0.3-2-0.4-3-0.7-0.4-0.1-0.7-0.3-1.1-0.4-0.3 0-0.6 0-0.8 0-0.1 0-0.1-0.2-0.2-0.2-0.2 0-0.4 0-0.6 0-1-0.2-1.9-0.5-2.8-0.8-0.5-0.1-0.8-0.1-1.2-0.4-0.4-0.2-1-0.5-1.3-0.7-1.5-1.1-3-2-4.3-3.3-1.2-1.2-2.5-2.3-3.7-3.4-0.3-0.3-0.6-0.6-0.9-0.9-0.3-0.3-0.6-0.4-1-0.7-0.6-0.7-1.1-1.4-1.7-2.2-1-1.5-2.3-2.7-3.1-4.3-0.4-0.8-0.8-1.6-1.3-2.3-0.2-0.5-0.5-1.1-0.7-1.6-0.2-0.4-0.5-0.9-0.6-1.3-0.2-0.5-0.2-1.1-0.4-1.6 0-0.3-0.2-0.4-0.2-0.6-0.1-0.3 0.1-0.7 0-1-0.1-0.3-0.2-0.4-0.3-0.6-0.1-0.3 0.1-0.7 0-1 0-0.2-0.2-0.3-0.3-0.6 0-0.3 0.2-0.7 0.1-1.1-0.1-0.2-0.3-0.3-0.3-0.6-0.1-0.3 0-0.6 0-0.9 0-0.7-0.2-1.2-0.3-1.9 0-0.5-0.1-1.4 0-1.9 0.1-0.3 0.2-0.4 0.3-0.7 0.1-0.3-0.1-0.7 0-1 0.7-0.2 0.5 1.3 0.5 1.7 0 0.7 0.3 1 0.3 1.7 0 0.8 0.3 0.9 0.8 1.5 0.2 0.2 0.7 0.7 0.8 1.1 0 0.2 0 0.6 0.1 0.8 0.1 0.3 0.1 0.4 0.1 0.8 0 0.6 0 0.9 0.5 1.3 0.3 0.3 0.9 0.7 1.3 0.8 0.6 0.1 1.2 0.1 1.8 0.2 0.2 0.1 0.3 0.2 0.6 0.3 0.3 0.1 0.7-0.1 1 0 0.3 0.2 0.7 0.8 0.8 1.1 0.1 0.6 0 1-0.2 1.5q-0.1 0.3-0.3 0.5c-0.1 0.2-0.3 0.4-0.5 0.6-0.4 0.9 0.3 2.4 0.5 3.2 0 0.3 0.5 1.2 0.2 1.4-0.2 0.3-1.7 0.1-2-0.1-0.1 0.3 0.2 1 0.3 1.3 0.1 0.4 0.3 1 0.5 1.4 0.5 0.8 1.4 1.5 2.2 2 0.5 0.2 0.8 0.4 0.9-0.3 0.1-0.3 0-0.5 0.1-0.8 0.2-0.2 0.4-0.3 0.5-0.5 0-0.3-0.1-0.7-0.1-1 0.1-0.2 0.2-0.3 0.3-0.5 0.1-0.6-0.1-1.3 0-1.9 0.2-1.3 1.1-1.9 2.2-2.1 1.1-0.3 2.2-0.6 3.3-1.1 1.2-0.5 2.4-0.7 3.7-0.3 1 0.3 1.8 0.9 2.7 1.4 0.4 0.2 0.8 0.3 1.2 0.5q0.7 0.3 1.5 0.5c0.8 0.2 1.8 0.4 2.6 0.8 0.8 0.5 1.8 1.1 2.3 1.8 0.5 0.7 1 2.1 0.7 3-0.3 0.7-1.3 1.3-1.8 1.8-0.8 1-0.6 1.6 0 2.6 0.2 0.3 0.6 0.8 0.7 1.2 0.1 0.5 0.1 1.2 0 1.8 0 0.5-0.1 0.8-0.4 1.2-0.3 0.4-0.9 0.7-1.1 1.1-0.2 0.3 0 0.5 0.2 0.8 0 0 0.1 0.1 0.2 0.1 0.1 0.2 0 0.4 0.1 0.6 0.2 0.6 0.8 0.5 1.3 0.6 0.6 0.2 1 0.1 1.6-0.1 0.3-0.1 0.4-0.2 0.7-0.3 0.4 0 0.6 0.2 0.9 0.2 0.6 0.2 1-0.3 1.7-0.3 0.5 0 0.8 0.2 1.2 0.6 0.3 0.3 0.8 0.9 0.7 1.4 0 0.5-0.7 0.8-1 1.3z"/>
							<path id="&lt;Path&gt;" class="s3" d="m90.2 115.9c-0.3-0.8 1.2-1 1.7-0.7 0.4 0.2 0.3 0.6 0.4 0.9 0.1 0.4 0.3 0.6 0.2 1-0.1 0.9-0.5 1.2-1.3 0.7-0.5-0.3-1-0.8-1.4-1.3q-0.2 0.1-0.4 0.2z"/>
							<path id="&lt;Path&gt;" class="s3" d="m64.2 82.9q-0.2 0.3-0.5 0.3c-0.1-0.5-0.1-1.2 0-1.7 0.1-0.2 0.2-0.4 0.3-0.7 0-0.2 0-0.4 0-0.7 0.1-0.3 0.4-0.8 0.4-1.2 0.1-0.5 0.1-0.8 0.4-1.2 0.1-0.4 0.2-1 0.4-1.5 0.2-0.4 0.4-0.7 0.7-1.1 0.4-0.8 0.8-1.6 1.3-2.4 0.9-1.4 1.9-2.8 3.2-3.9 0.4-0.4 1-0.7 1.4-1 0.2-0.1 0.3-0.3 0.5-0.4 0.1-0.1 0.4-0.2 0.5-0.3 0.4-0.3 1.6-1.5 2.1-1.2-0.3 1-1 2-1.4 2.9-0.6 1.1-1.6 1.1-2.4 1.9-1.3 1.2 0.8 1.7 1.6 2.2 0.7 0.5 0.7 1.1 0.7 1.9 0 0.7 0 1.3 0.3 2 0 0.2 0.2 0.6 0.2 0.9q0 0.2 0 0.5 0 0.2 0.2 0.3c0.2 0.8-0.1 1.2-0.4 1.9-0.2 0.6-0.4 1.2-0.9 1.7-0.5 0.4-1.1 0.3-1.8 0.3-0.4 0-0.6-0.1-1-0.2-0.3-0.1-0.7-0.2-0.9-0.3-0.3 0-0.6 0-0.9-0.1-0.3-0.1-0.3-0.2-0.8-0.1-0.4 0.1-0.9 0.6-1.3 0.7-0.7 0.2-1.4-0.2-2.1 0 0 0.1 0 0.2 0.2 0.5z"/>
						</g>
					</g>
					<g id="&lt;Group&gt;">
						<g id="&lt;Group&gt;">
							<path id="&lt;Path&gt;" class="s4" d="m167.4 28.6c38 38 37.8 99.9-0.6 138.2-38.3 38.4-100.2 38.6-138.2 0.6-38-38-37.8-99.9 0.6-138.2 38.3-38.4 100.2-38.6 138.2-0.6z"/>
						</g>
						<g id="&lt;Group&gt;">
							<path id="&lt;Path&gt;" class="s5" d="m145.3 50.7c25.9 25.9 25.8 68.1-0.4 94.2-26.1 26.2-68.3 26.3-94.2 0.4-25.9-25.9-25.8-68.1 0.4-94.2 26.1-26.2 68.3-26.3 94.2-0.4z"/>
						</g>
					</g>
				</g>
			</g>
		</g>
	</g>
</svg>