<svg xmlns="http://www.w3.org/2000/svg" version="1.1" xmlns:xlink="http://www.w3.org/1999/xlink" xmlns:svgjs="http://svgjs.dev/svgjs" viewBox="0 0 800 800" opacity="1"><defs><symbol id="bbburst-shape-1" viewBox="0 0 194 167"><path d="m97 0 96.129 166.5H.871L97 0Z"></path></symbol><symbol id="bbburst-shape-8" viewBox="0 0 87 168"><path d="m12 12 31.2546 18.0749c16.4102 9.4902 20.014 31.6325 7.4603 45.8369L36.3296 92.1884c-12.5684 14.2206-8.9394 36.3916 7.5068 45.8636L75 156" stroke-width="14" stroke-linecap="round" stroke-linejoin="round"></path></symbol><symbol id="bbburst-shape-9" viewBox="0 0 182 172"><path d="M13.5809 69.845 91 13.5967l77.419 56.2483-29.571 91.012H43.1524L13.5809 69.845Z" stroke-width="22"></path></symbol><symbol id="bbburst-shape-11" viewBox="0 0 194 167"><path d="M10.398 161 97 11l86.603 150H10.397Z" stroke-width="11"></path></symbol><symbol id="bbburst-shape-12" viewBox="0 0 170 151"><path d="M69.3728 54.2122 85 10.0031l15.627 44.2091c1.413 3.9958 5.19 6.6672 9.428 6.6673h49.312l-39.149 26.1447c-3.803 2.5401-5.399 7.3367-3.875 11.6488l15.179 42.94-40.9683-27.36c-3.3621-2.245-7.7453-2.245-11.1074 0l-40.9682 27.36 15.1785-42.94c1.5243-4.3121-.0712-9.1087-3.8746-11.6488L10.6333 60.8795h49.3112c4.2381-.0001 8.0159-2.6715 9.4283-6.6673Z" stroke-width="12"></path></symbol></defs><use xlink:href="#bbburst-shape-11" width="44.940538217056385" opacity="0.627722833892927" transform="matrix(0.9760782739549746,0.21741941751618601,-0.21741941751618601,0.9760782739549746,624.2997259895874,56.45702840682793)" fill="none" stroke="#3db2ff"></use><use xlink:href="#bbburst-shape-1" width="31.00653267440096" opacity="0.7058236272655858" transform="matrix(0.8009801344435249,0.5986909254588988,-0.5986909254588988,0.8009801344435249,705.9758876908716,176.62481748484936)" fill="#00a19d"></use><use xlink:href="#bbburst-shape-11" width="48.54352175552643" opacity="0.3680456719637589" transform="matrix(0.9999777303761781,-0.006673735963292746,0.006673735963292746,0.9999777303761781,92.64058830020731,-47.77660703337119)" fill="none" stroke="#ffbd9b"></use><use xlink:href="#bbburst-shape-9" width="40.55739832310347" opacity="0.21763723554488446" transform="matrix(0.9988694913204706,0.047536715380683825,-0.047536715380683825,0.9988694913204706,351.7275383664994,-349.6908002809794)" fill="none" stroke="#00a19d"></use><use xlink:href="#bbburst-shape-1" width="42.28465975028935" opacity="0.5388778681008604" transform="matrix(0.9214285374582359,0.388547873958379,-0.388547873958379,0.9214285374582359,602.2059366029242,219.89576882365498)" fill="#ff5c58"></use><use xlink:href="#bbburst-shape-12" width="41.15911065010502" opacity="0.3477758315924163" transform="matrix(0.9139715308717602,0.4057783147926108,-0.4057783147926108,0.9139715308717602,420.0167623723047,292.2379251383618)" fill="none" stroke="#ffbd9b"></use><use xlink:href="#bbburst-shape-12" width="47.32975970776454" opacity="0.26017574885785066" transform="matrix(0.9813788994435828,0.1920818984883847,-0.1920818984883847,0.9813788994435828,777.941013791596,-72.38401645844431)" fill="none" stroke="#ffa6d5"></use><use xlink:href="#bbburst-shape-11" width="28.87907378922715" opacity="0.8369369808252305" transform="matrix(0.9969040353563473,0.0786278849405901,-0.0786278849405901,0.9969040353563473,379.5588036730563,-63.3244898889854)" fill="none" stroke="#ffa6d5"></use><use xlink:href="#bbburst-shape-12" width="53.60801258172563" opacity="0.4276938086643306" transform="matrix(0.9131178791300817,-0.4076956448295488,0.4076956448295488,0.9131178791300817,0.9071878049275881,-101.35556040921065)" fill="none" stroke="#00a19d"></use><use xlink:href="#bbburst-shape-9" width="41.63999261981161" opacity="0.10178644706623352" transform="matrix(0.8152133397929312,0.5791607813238521,-0.5791607813238521,0.8152133397929312,419.6555015392175,415.5655057428255)" fill="none" stroke="#ffbd9b"></use><use xlink:href="#bbburst-shape-11" width="48.67672547304533" opacity="-0.026523099857959753" transform="matrix(0.8113696869719726,0.584533344697292,-0.584533344697292,0.8113696869719726,935.1712832093642,-271.71537915947965)" fill="none" stroke="#00a19d"></use><use xlink:href="#bbburst-shape-9" width="48.92993044564729" opacity="-0.051506457383846405" transform="matrix(0.8807490344349421,0.47358329609680816,-0.47358329609680816,0.8807490344349421,910.3868858326134,362.46927052859485)" fill="none" stroke="#3db2ff"></use><use xlink:href="#bbburst-shape-8" width="51.53412643819341" opacity="-0.06059887707925382" transform="matrix(0.8806729589639585,0.47372475061966723,-0.47372475061966723,0.8806729589639585,229.33879162924683,373.02655847791)" fill="none" stroke="#ffbd9b"></use><use xlink:href="#bbburst-shape-11" width="55.368878776493744" opacity="-0.056382008289431074" transform="matrix(0.8468572715314819,-0.5318202343407534,0.5318202343407534,0.8468572715314819,-174.26048763426593,-259.1858778571494)" fill="none" stroke="#ffa6d5"></use><use xlink:href="#bbburst-shape-12" width="47.712226658539464" opacity="0.5056119240571249" transform="matrix(0.8595831369434743,-0.5109959204166079,0.5109959204166079,0.8595831369434743,339.5276148997707,218.0908603374387)" fill="none" stroke="#00a19d"></use><use xlink:href="#bbburst-shape-11" width="40.9691849250191" opacity="0.5234253884695967" transform="matrix(0.871170597340734,-0.49098043782719974,0.49098043782719974,0.871170597340734,362.40789443371875,-60.10245174083633)" fill="none" stroke="#ffbd9b"></use><use xlink:href="#bbburst-shape-12" width="37.688711353602166" opacity="0.1011209611549524" transform="matrix(0.7321474977538803,-0.6811461234806608,0.6811461234806608,0.7321474977538803,-240.2327866820102,315.7571986728581)" fill="none" stroke="#ffbd9b"></use><use xlink:href="#bbburst-shape-8" width="39.340975671061244" opacity="0.7324534521429333" transform="matrix(0.8979730539526881,0.44005044526154335,-0.44005044526154335,0.8979730539526881,602.2881397845899,-79.93986844535186)" fill="none" stroke="#ff5c58"></use><use xlink:href="#bbburst-shape-1" width="50.53973358407202" opacity="0.08503480295420773" transform="matrix(0.9756653501889355,0.21926496400634074,-0.21926496400634074,0.9756653501889355,687.1607630396428,349.64566440733404)" fill="#00a19d"></use><use xlink:href="#bbburst-shape-1" width="48.75228028540801" opacity="0.16774657418051953" transform="matrix(0.9962633174662155,-0.0863678312290551,0.0863678312290551,0.9962633174662155,-13.02448681998294,-118.01214975155125)" fill="#00a19d"></use><use xlink:href="#bbburst-shape-9" width="36.27826227884497" opacity="0.19057641781230072" transform="matrix(0.9967898891350165,-0.08006195674726757,0.08006195674726757,0.9967898891350165,437.4925382268825,356.0379399268979)" fill="none" stroke="#00a19d"></use><use xlink:href="#bbburst-shape-1" width="35.76686027779973" opacity="0.7262866240650974" transform="matrix(0.7397245447531358,0.6729097992225748,-0.6729097992225748,0.7397245447531358,773.0107188465963,53.93787898101829)" fill="#ffbd9b"></use><use xlink:href="#bbburst-shape-12" width="48.42327668160577" opacity="0.30398946122507997" transform="matrix(0.7211301437377767,0.6927996216747909,-0.6927996216747909,0.7211301437377767,839.0527773455831,-162.07173255146148)" fill="none" stroke="#3db2ff"></use><use xlink:href="#bbburst-shape-1" width="27.640035843243158" opacity="0.6329063053313101" transform="matrix(0.7708888155897718,0.6369697276940238,-0.6369697276940238,0.7708888155897718,567.145796563535,-63.29779135473828)" fill="#00a19d"></use><use xlink:href="#bbburst-shape-1" width="42.42343804287876" opacity="0.13518267897623026" transform="matrix(0.9790685293649354,-0.2035308694207899,0.2035308694207899,0.9790685293649354,454.94659294667173,-343.29915491674194)" fill="#00a19d"></use><use xlink:href="#bbburst-shape-1" width="29.100364655686615" opacity="0.6823877261558482" transform="matrix(0.9247660314545917,-0.3805361836510755,0.3805361836510755,0.9247660314545917,120.5633799414394,122.16144230413641)" fill="#3db2ff"></use><use xlink:href="#bbburst-shape-9" width="38.78923613338387" opacity="0.7886660406562847" transform="matrix(0.8154653246894117,0.5788059296769448,-0.5788059296769448,0.8154653246894117,520.758801851198,61.93887094229467)" fill="none" stroke="#ffbd9b"></use><use xlink:href="#bbburst-shape-1" width="46.69793592202531" opacity="0.48756077211004956" transform="matrix(0.8580428979496251,-0.5135780225809993,0.5135780225809993,0.8580428979496251,13.337063088894041,233.69181582513653)" fill="#ff5c58"></use><use xlink:href="#bbburst-shape-11" width="45.81968953825563" opacity="0.12241972338159823" transform="matrix(0.9530302189558226,-0.30287522473292017,0.30287522473292017,0.9530302189558226,608.2806487749513,205.28167122267922)" fill="none" stroke="#00a19d"></use><use xlink:href="#bbburst-shape-8" width="36.92525787431087" opacity="0.38223172728200927" transform="matrix(0.871742765963671,-0.489963825185093,0.489963825185093,0.871742765963671,452.1634883777502,146.70224961241087)" fill="none" stroke="#ffa6d5"></use><use xlink:href="#bbburst-shape-8" width="30.541491397674356" opacity="0.5957274377175468" transform="matrix(0.8210404124712956,0.5708700737374177,-0.5708700737374177,0.8210404124712956,434.6265603613067,46.48426253155941)" fill="none" stroke="#ffa6d5"></use><use xlink:href="#bbburst-shape-11" width="44.53944720175295" opacity="0.4989844608624284" transform="matrix(0.9655546998502157,0.26020015679695496,-0.26020015679695496,0.9655546998502157,706.9065113606229,-16.53525102728105)" fill="none" stroke="#ffa6d5"></use><use xlink:href="#bbburst-shape-9" width="41.77075582245271" opacity="0.5335036182588341" transform="matrix(0.9795319997251402,-0.20128850318502536,0.20128850318502536,0.9795319997251402,390.27295838728344,-176.9126726300262)" fill="none" stroke="#00a19d"></use><use xlink:href="#bbburst-shape-8" width="42.3489879069923" opacity="0.09938941678401403" transform="matrix(0.8765147641672835,-0.4813749767039948,0.4813749767039948,0.8765147641672835,545.3870573900613,-133.17626041366807)" fill="none" stroke="#ffbd9b"></use><use xlink:href="#bbburst-shape-12" width="39.55286071493606" opacity="0.5253908890925338" transform="matrix(0.9604229217732172,0.27854588730153,-0.27854588730153,0.9604229217732172,472.85515917300063,-202.42047191310363)" fill="none" stroke="#00a19d"></use><use xlink:href="#bbburst-shape-8" width="35.206800052540835" opacity="0.20361341565878366" transform="matrix(0.8428651160495116,-0.5381248889866026,0.5381248889866026,0.8428651160495116,115.33173054967756,426.51996192505135)" fill="none" stroke="#00a19d"></use><use xlink:href="#bbburst-shape-9" width="43.967979028090426" opacity="0.3879462187749104" transform="matrix(0.9230013563970014,-0.38479669448852544,0.38479669448852544,0.9230013563970014,238.23885770841247,314.12277995029444)" fill="none" stroke="#00a19d"></use><use xlink:href="#bbburst-shape-8" width="41.2902764944805" opacity="0.37937664522744785" transform="matrix(0.738762606997175,0.6739657339232741,-0.6739657339232741,0.738762606997175,519.0472739341501,-153.74473381173073)" fill="none" stroke="#ff5c58"></use><use xlink:href="#bbburst-shape-9" width="34.45765106903744" opacity="0.6481104352074764" transform="matrix(0.7220239375900598,0.6918680752476916,-0.6918680752476916,0.7220239375900598,531.9213986211948,12.464697655664907)" fill="none" stroke="#ffbd9b"></use><use xlink:href="#bbburst-shape-1" width="49.99076661186578" opacity="0.16381775182436942" transform="matrix(0.8387159446213256,-0.5445691546883256,0.5445691546883256,0.8387159446213256,-138.3865250195011,-149.43889739237812)" fill="#3db2ff"></use><use xlink:href="#bbburst-shape-8" width="40.33450428085151" opacity="0.20930320344019393" transform="matrix(0.8889896241760059,0.45792733933169333,-0.45792733933169333,0.8889896241760059,919.178976427723,71.66873839468354)" fill="none" stroke="#3db2ff"></use><use xlink:href="#bbburst-shape-12" width="28.277270484447143" opacity="0.8857961065185141" transform="matrix(0.7923347172723552,-0.6100866297542809,0.6100866297542809,0.7923347172723552,115.94634611527161,134.22508285859766)" fill="none" stroke="#00a19d"></use><use xlink:href="#bbburst-shape-12" width="29.45875549144456" opacity="0.7267545432485927" transform="matrix(0.9965405774968001,0.0831076254163488,-0.0831076254163488,0.9965405774968001,409.3852629819089,122.72346577507494)" fill="none" stroke="#ff5c58"></use><use xlink:href="#bbburst-shape-1" width="28.77920807830513" opacity="0.8492689900712578" transform="matrix(0.9953038757005063,-0.09679976764203063,0.09679976764203063,0.9953038757005063,403.8484800212258,40.2495350117556)" fill="#3db2ff"></use><use xlink:href="#bbburst-shape-9" width="26.5083868811295" opacity="0.9110135913455695" transform="matrix(0.8907130535951517,-0.4545660085787325,0.4545660085787325,0.8907130535951517,234.85179703334967,21.517239745299776)" fill="none" stroke="#ffbd9b"></use><use xlink:href="#bbburst-shape-8" width="57.164493469867224" opacity="0.21390285175123502" transform="matrix(0.9856766204976689,-0.1686463750108325,0.1686463750108325,0.9856766204976689,-46.47421969761076,55.75953615555022)" fill="none" stroke="#ffbd9b"></use><use xlink:href="#bbburst-shape-11" width="49.74340766134573" opacity="0.2643489376739079" transform="matrix(0.9027074929548117,0.4302547874960122,-0.4302547874960122,0.9027074929548117,801.987776710241,242.23969241617573)" fill="none" stroke="#ffa6d5"></use><use xlink:href="#bbburst-shape-9" width="43.13113938486588" opacity="0.328072653954226" transform="matrix(0.8440207876722556,0.5363104604397579,-0.5363104604397579,0.8440207876722556,330.69002083018415,194.74203774187367)" fill="none" stroke="#3db2ff"></use><use xlink:href="#bbburst-shape-9" width="32.25240074755901" opacity="0.47608690684860244" transform="matrix(0.8848901510001125,-0.46579976455876204,0.46579976455876204,0.8848901510001125,-28.99650501599558,112.18346874746453)" fill="none" stroke="#ffbd9b"></use><use xlink:href="#bbburst-shape-1" width="41.20102812873432" opacity="0.32312294948475273" transform="matrix(0.8838672658438351,0.4677378072913749,-0.4677378072913749,0.8838672658438351,618.761267601152,-263.6152337767373)" fill="#ffbd9b"></use><use xlink:href="#bbburst-shape-1" width="52.19176780194749" opacity="0.12483495991900095" transform="matrix(0.7756454981331117,0.6311688056501502,-0.6311688056501502,0.7756454981331117,435.9325008545022,-268.11937200416156)" fill="#ff5c58"></use><use xlink:href="#bbburst-shape-8" width="45.425921806211676" opacity="0.3301486248684137" transform="matrix(0.9984198289187874,0.056194708129673525,-0.056194708129673525,0.9984198289187874,549.1809733033399,261.1714660513549)" fill="none" stroke="#00a19d"></use><use xlink:href="#bbburst-shape-9" width="40.290611520708524" opacity="0.5550601863856147" transform="matrix(0.9976304836672225,0.06879984053690623,-0.06879984053690623,0.9976304836672225,353.22973372324174,192.03510592602498)" fill="none" stroke="#ffa6d5"></use><use xlink:href="#bbburst-shape-8" width="40.38343831079663" opacity="0.21030512175145977" transform="matrix(0.9302681422264398,0.3668803395639623,-0.3668803395639623,0.9302681422264398,281.23466274381144,276.2290001991128)" fill="none" stroke="#ffa6d5"></use><use xlink:href="#bbburst-shape-8" width="45.96025602047672" opacity="0.28024539794170134" transform="matrix(0.909476511359832,-0.41575530698326546,0.41575530698326546,0.909476511359832,471.8764629692947,-148.6144774750362)" fill="none" stroke="#3db2ff"></use></svg>